# xmcd
#
# Track frame offsets: 
#        150
#        10646
#        22464
#        37987
#        49128
#        66065
#        80410
#        89492
#        104227
#        123059
#        136151
#        148597
#        166205
#        178815
#        199403
#        219230
#        237596
#        251204
#
# Disc length: 3606 seconds
#
# Revision: 0
# Processed by: cddbd v1.4PL0 Copyright (c) Steve Scherf et al.
# Submitted via: ExactAudioCopy v0.90b4
#
DISCID=070e1412
DTITLE=Wil Sargisson - Steppin' Out
DYEAR=1900
DGENRE=
TTITLE0=Steppin' Out
TTITLE1=Keep On Gwine
TTITLE2=St Louis Blues
TTITLE3=Handful of Keys
TTITLE4=Gonzo's Blue Dream
TTITLE5=I've Got A Feeling I'm Falling
TTITLE6=Walla Walla
TTITLE7=Delicado
TTITLE8=Hootie Blues
TTITLE9=Shuffle Boogie
TTITLE10=Honky Tonk Train Blues
TTITLE11=Besame Mucho
TTITLE12=Malaguena
TTITLE13=Boxcar Boogie
TTITLE14=Tico Tico
TTITLE15=The Bayou Maharajah
TTITLE16=Pretty Libby
TTITLE17=Litanie Des Saints
EXTD=
EXTT0=
EXTT1=
EXTT2=
EXTT3=
EXTT4=
EXTT5=
EXTT6=
EXTT7=
EXTT8=
EXTT9=
EXTT10=
EXTT11=
EXTT12=
EXTT13=
EXTT14=
EXTT15=
EXTT16=
EXTT17=
PLAYORDER=
